PathFileType	4	(X/Y/Z) flx_0kg_2.trc																										
DataRate	CameraRate	NumFrames	NumMarkers	Units	OrigDataRate	OrigDataStartFrame	OrigNumFrames																					
100	100	19	9	mm	100	637	848																					
Frame#	Time	gu			centelbow			EpL			centpxt8			centijc7			ij			ts			aa			ai		
		X1	Y1	Z1	X2	Y2	Z2	X3	Y3	Z3	X4	Y4	Z4	X5	Y5	Z5	X6	Y6	Z6	X7	Y7	Z7	X8	Y8	Z8	X9	Y9	Z9  
636	6.36	-86.036	2.1	161.507	-20.441	-225.5	231.363	0.672	-209.455	249.699	-46.816	-153.158	-8.669	-46.816	31.938	-8.669	0	0	0	-143.359	17.132	45.45	-118.196	29.239	161.403	-144.983	-95.026	62.874
637	6.37	-85.669	1.428	161.673	-22.694	-227.181	230.639	-1.498	-211.446	249.147	-46.816	-153.158	-8.669	-46.816	31.938	-8.669	0	0	0	-143.167	17.313	45.738	-117.99	28.877	161.744	-145.155	-94.908	62.715
638	6.38	-85.317	0.562	162.057	-25.074	-229.004	230.282	-3.812	-213.574	248.972	-46.816	-153.158	-8.669	-46.816	31.938	-8.669	0	0	0	-143.008	17.376	45.937	-117.841	28.428	161.994	-145.363	-94.9	62.496
639	6.39	-84.994	-0.159	162.454	-27.458	-230.611	230.023	-6.126	-215.479	248.874	-46.816	-153.158	-8.669	-46.816	31.938	-8.669	0	0	0	-142.823	17.43	46.063	-117.706	28.042	162.173	-145.484	-94.892	62.259
640	6.4	-84.657	-0.635	162.934	-29.704	-231.891	229.903	-8.281	-217.042	248.877	-46.816	-153.158	-8.669	-46.816	31.938	-8.669	0	0	0	-142.595	17.583	46.148	-117.564	27.822	162.309	-145.475	-94.78	62.025
641	6.41	-84.406	-0.909	163.573	-31.929	-232.895	230.003	-10.392	-218.316	249.057	-46.816	-153.158	-8.669	-46.816	31.938	-8.669	0	0	0	-142.413	17.842	46.207	-117.482	27.736	162.42	-145.471	-94.558	61.781
642	6.42	-84.405	-1.045	164.1	-34.354	-233.708	230.033	-12.673	-219.395	249.125	-46.816	-153.158	-8.669	-46.816	31.938	-8.669	0	0	0	-142.295	18.082	46.266	-117.463	27.626	162.529	-145.547	-94.354	61.537
643	6.43	-84.619	-1.13	164.243	-36.961	-234.453	229.614	-15.111	-220.412	248.715	-46.816	-153.158	-8.669	-46.816	31.938	-8.669	0	0	0	-142.121	18.226	46.334	-117.374	27.394	162.646	-145.586	-94.247	61.282
644	6.44	-84.781	-1.464	164.109	-39.596	-235.479	228.759	-17.558	-221.733	247.859	-46.816	-153.158	-8.669	-46.816	31.938	-8.669	0	0	0	-141.841	18.307	46.365	-117.151	27.073	162.719	-145.514	-94.205	60.963
645	6.45	-84.748	-2.17	163.849	-42.205	-236.918	227.631	-19.974	-223.496	246.738	-46.816	-153.158	-8.669	-46.816	31.938	-8.669	0	0	0	-141.622	18.361	46.327	-116.956	26.732	162.716	-145.498	-94.188	60.584
646	6.46	-84.649	-2.734	163.447	-44.775	-238.191	226.331	-22.367	-225.099	245.46	-46.816	-153.158	-8.669	-46.816	31.938	-8.669	0	0	0	-141.642	18.381	46.322	-116.999	26.414	162.739	-145.726	-94.196	60.294
647	6.47	-84.536	-2.687	163.079	-47.168	-238.762	225.178	-24.628	-225.973	244.356	-46.816	-153.158	-8.669	-46.816	31.938	-8.669	0	0	0	-141.784	18.422	46.44	-117.197	26.196	162.887	-146.05	-94.175	60.196
648	6.48	-84.287	-2.349	163.116	-49.306	-238.947	224.618	-26.683	-226.428	243.877	-46.816	-153.158	-8.669	-46.816	31.938	-8.669	0	0	0	-141.761	18.573	46.562	-117.254	26.159	163.038	-146.149	-94.039	60.157
649	6.49	-83.914	-2.354	163.681	-51.386	-239.42	224.724	-28.708	-227.163	244.086	-46.816	-153.158	-8.669	-46.816	31.938	-8.669	0	0	0	-141.551	18.787	46.528	-117.118	26.234	163.029	-146.016	-93.837	60
650	6.5	-83.567	-2.823	164.479	-53.605	-240.342	225.07	-30.865	-228.357	244.531	-46.816	-153.158	-8.669	-46.816	31.938	-8.669	0	0	0	-141.374	18.894	46.39	-117.021	26.229	162.914	-145.923	-93.738	59.765
651	6.51	-83.288	-3.291	165.071	-55.849	-241.253	225.118	-33.017	-229.55	244.641	-46.816	-153.158	-8.669	-46.816	31.938	-8.669	0	0	0	-141.336	18.842	46.312	-117.108	26.067	162.869	-145.988	-93.797	59.594
652	6.52	-83.019	-3.251	165.317	-57.897	-241.635	224.696	-34.942	-230.211	244.241	-46.816	-153.158	-8.669	-46.816	31.938	-8.669	0	0	0	-141.302	18.772	46.344	-117.258	25.875	162.947	-146.056	-93.876	59.518
653	6.53	-82.78	-2.669	165.42	-59.815	-241.465	224.016	-36.727	-230.318	243.564	-46.816	-153.158	-8.669	-46.816	31.938	-8.669	0	0	0	-141.115	18.839	46.371	-117.299	25.809	163.028	-145.955	-93.82	59.418
654	6.54	-82.686	-1.949	165.509	-61.935	-241.162	223.224	-38.717	-230.306	242.782	-46.816	-153.158	-8.669	-46.816	31.938	-8.669	0	0	0	-140.803	19.092	46.301	-117.239	25.923	163.018	-145.727	-93.579	59.215
